/vscmnt/brussel_pixiu_data/_data_brussel/112/vsc11236/PredSimResults/SUBJ06mtu3D/worker5.mot
version=1
nRows=8
nColumns=50
inDegrees=yes
endheader
                time	         pelvis_tilt	         pelvis_list	     pelvis_rotation	           pelvis_tx	           pelvis_ty	           pelvis_tz	       hip_flexion_r	     hip_adduction_r	      hip_rotation_r	        knee_angle_r	       ankle_angle_r	         mtp_angle_r	       hip_flexion_l	     hip_adduction_l	      hip_rotation_l	        knee_angle_l	       ankle_angle_l	         mtp_angle_l	    lumbar_extension	      lumbar_bending	     lumbar_rotation	 ercspn_r/activation	 intobl_r/activation	 extobl_r/activation	    abd_r/activation	    add_r/activation	hamstrings_r/activation	bifemsh_r/activation	glut_max_r/activation	iliopsoas_r/activation	rect_fem_r/activation	  vasti_r/activation	gastroc_r/activation	 soleus_r/activation	tib_ant_r/activation	 ercspn_l/activation	 intobl_l/activation	 extobl_l/activation	    abd_l/activation	    add_l/activation	hamstrings_l/activation	bifemsh_l/activation	glut_max_l/activation	iliopsoas_l/activation	rect_fem_l/activation	  vasti_l/activation	gastroc_l/activation	 soleus_l/activation	tib_ant_l/activation	
          0.00000000	         -6.45079270	         -1.08720479	          6.52733686	          0.00000000	          0.93087558	         -0.01361851	         30.65326724	         -1.39196149	         -4.26802871	         -4.11781817	          4.06556709	          0.22486511	        -10.92203746	         -0.52135250	          3.87369117	         -7.74970925	          9.58603878	         29.19676759	         -5.32789024	         -0.96164882	          1.58765889	          0.12879176	          0.13755264	          0.00999999	          0.00999999	          0.16027492	          0.13727043	          0.24079114	          0.05297951	          0.14016342	          0.00999999	          0.00999999	          0.04539157	          0.00999999	          0.39485754	          0.10431573	          0.00999999	          0.00999999	          0.05440729	          0.03280868	          0.01090526	          0.14118650	          0.04497394	          0.41581998	          0.01000000	          0.00999999	          0.37291685	          0.31308152	          0.02104650	
          0.01240548	         -6.50007371	         -1.01111080	          6.47683589	          0.01687433	          0.92902601	         -0.01279928	         30.71276992	         -1.18274523	         -3.51781909	         -5.89269734	          3.70057542	          0.19245413	        -11.33182528	         -0.51607809	          3.39011577	         -8.80472876	          8.84259868	         31.12114594	         -5.03004143	         -0.70965498	          1.24019611	          0.10672543	          0.15939074	          0.00999999	          0.00999999	          0.13281447	          0.12435676	          0.19953558	          0.09112275	          0.11614875	          0.00999999	          0.00999999	          0.03761448	          0.01537247	          0.42487692	          0.10366831	          0.00999999	          0.00999999	          0.04508550	          0.06691135	          0.02285449	          0.11699653	          0.03726840	          0.40791989	          0.00999999	          0.01541519	          0.34525862	          0.29330868	          0.01744053	
          0.02481095	         -6.53772484	         -0.94531061	          6.37920842	          0.03400174	          0.92750124	         -0.01188768	         30.59925987	         -0.99443096	         -2.83619640	         -7.44624854	          3.31309208	          0.18692411	        -11.57221648	         -0.51328246	          2.86943884	        -10.18930614	          7.94290801	         33.10791322	         -4.72095512	         -0.43648119	          0.89528884	          0.11983832	          0.13208178	          0.00999999	          0.07386384	          0.13185822	          0.11529514	          0.16534847	          0.11606605	          0.09624859	          0.00999999	          0.00999999	          0.03116986	          0.01273866	          0.48074577	          0.10405932	          0.00999999	          0.00999999	          0.03736085	          0.05544720	          0.01893877	          0.09695112	          0.03088308	          0.41811301	          0.01000000	          0.02120705	          0.31428942	          0.27101544	          0.01445238	
          0.03721643	         -6.56491648	         -0.86521074	          6.23426211	          0.05115194	          0.92646858	         -0.01087794	         30.39462683	         -0.80841716	         -2.26909211	         -8.82548129	          2.79875656	          0.15971918	        -11.56957532	         -0.48676081	          2.31517697	        -11.99808398	          6.83981748	         35.13722345	         -4.42931293	         -0.16944213	          0.55832858	          0.12727055	          0.10945176	          0.00999999	          0.12232462	          0.17891143	          0.10172101	          0.13701876	          0.15460054	          0.07975799	          0.00999999	          0.00999999	          0.02582943	          0.01055610	          0.50735383	          0.13551054	          0.00999999	          0.00999999	          0.03095969	          0.07731929	          0.02754787	          0.08034016	          0.02559178	          0.41673672	          0.01206757	          0.01757358	          0.26044114	          0.22517646	          0.01197621	
          0.04962191	         -6.57977696	         -0.78098429	          6.04909020	          0.06817487	          0.92601170	         -0.00978942	         30.15670881	         -0.61606603	         -1.79294234	        -10.20093362	          2.52302289	          0.13054721	        -11.24869684	         -0.44975633	          1.72460906	        -14.34820941	          5.55102488	         37.09440725	         -4.16689196	          0.10281134	          0.23101903	          0.13261960	          0.09069902	          0.00999999	          0.16473666	          0.20982823	          0.09254226	          0.11354287	          0.18820776	          0.06609278	          0.00999999	          0.01539082	          0.02140398	          0.01206757	          0.51622721	          0.16429969	          0.00999999	          0.00999999	          0.02565526	          0.11680811	          0.02628677	          0.06657520	          0.02120705	          0.40115592	          0.01000000	          0.01456264	          0.21581888	          0.18659621	          0.00999999	
          0.06202738	         -6.58201605	         -0.69714300	          5.82646225	          0.08493892	          0.92617477	         -0.00864638	         29.89510282	         -0.42029863	         -1.39667074	        -11.56607055	          2.45998647	          0.10939676	        -10.55860155	         -0.41233196	          1.08404334	        -17.30538640	          4.08807011	         38.77709739	         -3.94189564	          0.38498101	         -0.08276839	          0.12792735	          0.07515925	          0.00999999	          0.18858298	          0.21527065	          0.08655515	          0.09408918	          0.18813376	          0.05476888	          0.00999999	          0.06798417	          0.01773677	          0.00999999	          0.51708719	          0.18357554	          0.00999999	          0.00999999	          0.02125966	          0.16273708	          0.03088309	          0.05516865	          0.01757357	          0.36566992	          0.00999999	          0.01206757	          0.17884190	          0.15462604	          0.00999999	
          0.07443286	         -6.57340795	         -0.61318768	          5.56946282	          0.10136961	          0.92697775	         -0.00747503	         29.54113945	         -0.22215155	         -1.05186662	        -12.76426894	          2.51645665	          0.09231337	         -9.49382957	         -0.38658841	          0.38172557	        -20.85368564	          2.51173949	         39.79005669	         -3.75680832	          0.67538656	         -0.38033732	          0.12115851	          0.06228196	          0.00999999	          0.19266756	          0.18793114	          0.08272811	          0.07796856	          0.17339633	          0.04538514	          0.00999999	          0.11467144	          0.01469786	          0.00999999	          0.50566799	          0.18257292	          0.00999999	          0.00999999	          0.01761717	          0.17659411	          0.02559181	          0.04571642	          0.01456263	          0.31742033	          0.00999999	          0.00999999	          0.14820030	          0.12813344	          0.00999999	
          0.08683834	         -6.55635297	         -0.52550028	          5.28187084	          0.11743953	          0.92838660	         -0.00630241	         29.04672481	         -0.02648451	         -0.73005498	        -13.70744552	          2.70561238	          0.07923513	         -8.08661076	         -0.38701915	         -0.37886030	        -24.91307522	          0.86331353	         39.79683232	         -3.61124048	          0.96941164	         -0.65888193	          0.11090684	          0.05161098	          0.00999999	          0.18752940	          0.15573226	          0.07888729	          0.06460994	          0.15741997	          0.03760915	          0.00999999	          0.14724949	          0.01217963	          0.00999999	          0.48805935	          0.18451477	          0.00999999	          0.00999999	          0.01459876	          0.16923525	          0.02120709	          0.05464112	          0.01206757	          0.26303563	          0.00999999	          0.00999999	          0.12280864	          0.10617990	          0.00999999	
